<svg id="rb-logo" data-name="Layer 1 copy" xmlns="http://www.w3.org/2000/svg" viewBox="0 0 728.99 144" fill="#000000">
    <path d="M47.6,142,32.2,84.2h-11V142H0V2H33.2Q48.4,2,57.4,11.1t9,24.3V50.8a36.73,36.73,0,0,1-3.8,17A28.31,28.31,0,0,1,51.8,79.4L69.6,142ZM21.2,64.2h11q6.19,0,9.6-3.4t3.4-9.6V35q0-6.19-3.4-9.6T32.2,22h-11Z" />
    <path d="M87,2h21.2V142H87Z" />
    <path d="M131.4,2h21.2V122h37.8v20h-59Z" />
    <path d="M205.8,2H266V22H227V61h31V81H227v41h39v20H205.8Z" />
    <path d="M353.2,2,324.8,83.4V142H303.6V83.4L275.2,2h22.6l16.4,53.4L331,2Z" />
    <path d="M476.29,80.2q4.09,7,4.1,17v11.4q0,15.2-9,24.3t-24.2,9.1h-35.4V2h33.6q15.19,0,24.2,9.1t9,24.3v7.4q0,18.8-14.2,26.8A26,26,0,0,1,476.29,80.2ZM433,22V60h9.4q7.61,0,11.3-3.7t3.7-11.3V35q0-6.19-3.4-9.6c-2.26-2.27-5.47-3.4-9.6-3.4Zm26.2,73q0-7.6-3.7-11.3T444.19,80H433v42h13.2q6.19,0,9.6-3.4t3.4-9.6Z" />
    <path d="M507.19,134.7q-9.4-9.3-9.4-24.5V33.8q0-15.19,9.4-24.5T531.79,0Q547,0,556.39,9.3t9.4,24.5v76.4q0,15.19-9.4,24.5t-24.6,9.3Q516.6,144,507.19,134.7Zm34-14.3q3.4-3.6,3.4-10.2V33.8q0-6.6-3.4-10.2t-9.4-3.6q-6,0-9.4,3.6T519,33.8v76.4q0,6.6,3.4,10.2t9.4,3.6Q537.79,124,541.19,120.4Z" />
    <path d="M649,2l-28.4,81.4V142h-21.2V83.4L571,2h22.6L610,55.4,626.79,2Z" />
    <path d="M661.59,2h33.2Q710,2,719,11.1t9,24.3v73.2q0,15.2-9,24.3t-24.2,9.1h-33.2Zm32.2,120q6.19,0,9.6-3.4t3.4-9.6V35q0-6.19-3.4-9.6t-9.6-3.4h-11V122Z" />
</svg>