<?xml version="1.0" encoding="utf-8"?>
<!-- Generator: Adobe Illustrator 24.2.0, SVG Export Plug-In . SVG Version: 6.00 Build 0)  -->
<svg version="1.1" id="Layer_1" xmlns="http://www.w3.org/2000/svg" xmlns:xlink="http://www.w3.org/1999/xlink" x="0px" y="0px"
	 viewBox="0 0 5760 232.7" style="enable-background:new 0 0 5760 232.7;" xml:space="preserve">
<style type="text/css">
	.st0{fill:url(#SVGID_1_);}
</style>
<linearGradient id="SVGID_1_" gradientUnits="userSpaceOnUse" x1="0" y1="116.3847" x2="5760" y2="116.3847">
	<stop  offset="0" style="stop-color:#323642"/>
	<stop  offset="0.5294" style="stop-color:#5E6476"/>
	<stop  offset="1" style="stop-color:#323642"/>
</linearGradient>
<path class="st0" d="M5617.9,92.2c-60.4,0.1-121.6-51.6-160.2-72.8c-54.4-29.8-107-21.7-160,0c-53.3,21.3-107,53.3-160,53.3
	c-53.3,0-107-32-160-48c-53.3-16-107-16-160-5.3c-53.3,10.3-107.1,31.6-160,42.6c-116.2,24.1-157.5-17.8-223.7-19.4
	c-31.4-0.8-60.9,6.2-90.5,13.1c-18.1,4.2-19.6,4.8-26.1,6.3c-53,12.3-107,10.7-160-5.3c-53.3-16-100.2-44.1-160-42.7
	c-47.5,1.1-83.8,26.4-139.7,42.7c-53.1,15.5-106.7,16-160,5.3c-53-10.3-106.7-32.3-160-42.6c-53-10.7-106.7-10.7-160,5.3
	c-53,16-106.7,48-160,48c-53,0-106.7-32-160-53.3c-53-21.7-103.6-25.8-160,0c-5.8,2.7-11.7,5.8-17.7,9.1
	c-44.5,24.7-92.8,63.7-142.1,63.7c-60.4,0.1-121.6-51.6-160.2-72.8c-54.4-29.8-107-21.7-160,0c-53.3,21.3-107,53.3-160,53.3
	c-53.3,0-107-32-160-48c-53.3-16-107-16-160-5.3c-53.3,10.3-107.1,31.6-160,42.6c-116.2,24.1-157.5-17.8-223.7-19.4
	c-31.4-0.8-60.9,6.2-90.5,13.1c-18.1,4.2-19.6,4.8-26.1,6.3c-53,12.3-107,10.7-160-5.3c-53.3-16-100.2-44.1-160-42.7
	c-47.5,1.1-83.8,26.4-139.7,42.7c-53.1,15.5-106.7,16-160,5.3c-53-10.3-106.7-32.3-160-42.6c-53-10.7-106.7-10.7-160,5.3
	c-53,16-106.7,48-160,48c-53,0-106.7-32-160-53.3c-53-21.7-103.6-25.8-160,0C11.9,22.1,6,25.2,0,28.5v204.3c5.9,0,11.8,0,17.7,0
	c53,0,106.7,0,160,0c53,0,106.7,0,160,0c53,0,106.7,0,160,0c53,0,106.7,0,160,0c53,0,106.7,0,160,0c53,0,106.7,0,160,0
	c45.4,0,91.3,0,137,0c0.9,0,1.8,0,2.7,0c6.8,0,13.5,0,20.3,0c33.6,0,101,0,139.7,0c53.3,0,107,0,160,0c0.9,0,1.7,0,2.6,0h337.7
	c53.3,0,107,0,160,0c53.3,0,107,0,160,0c53.3,0,107,0,160,0c53.3,0,107,0,160,0c53.3,0,107,0,160,0c53.3,0,107,0,133,0h27h27
	c23.1,0,68.1,0,115.3,0c5.9,0,11.8,0,17.7,0c53,0,106.7,0,160,0c53,0,106.7,0,160,0c53,0,106.7,0,160,0c53,0,106.7,0,160,0
	c53,0,106.7,0,160,0c53,0,106.7,0,160,0c45.4,0,91.3,0,137,0c0.9,0,1.8,0,2.7,0c6.8,0,13.5,0,20.3,0c33.6,0,101,0,139.7,0
	c53.3,0,107,0,160,0c0.9,0,1.7,0,2.6,0h337.7c53.3,0,107,0,160,0c53.3,0,107,0,160,0c53.3,0,107,0,160,0c53.3,0,107,0,160,0
	c53.3,0,107,0,160,0c53.3,0,107,0,133,0h27h27c23.1,0,68.1,0,115.3,0V28.5C5715.5,53.2,5667.2,92.2,5617.9,92.2z"/>
</svg>
